<svg width="16" height="16" viewBox="0 0 16 16" fill="none" xmlns="http://www.w3.org/2000/svg">
<g clip-path="url(#clip0_406_2530)">
<path fill-rule="evenodd" clip-rule="evenodd" d="M7.99999 4.66666C8.36818 4.66666 8.66666 4.96514 8.66666 5.33333V14.6667C8.66666 15.0349 8.36818 15.3333 7.99999 15.3333C7.63181 15.3333 7.33333 15.0349 7.33333 14.6667V5.33333C7.33333 4.96514 7.63181 4.66666 7.99999 4.66666Z" fill="#4B5466"/>
<path fill-rule="evenodd" clip-rule="evenodd" d="M0.861934 7.5286C0.986958 7.40357 1.15653 7.33334 1.33334 7.33334H3.33334C3.70153 7.33334 4 7.63181 4 8C4 8.36819 3.70153 8.66667 3.33334 8.66667H2.03714C2.18759 10.0127 2.79041 11.2757 3.75736 12.2426C4.88258 13.3679 6.40871 14 8 14C9.5913 14 11.1174 13.3679 12.2426 12.2426C13.2096 11.2757 13.8124 10.0127 13.9629 8.66667H12.6667C12.2985 8.66667 12 8.36819 12 8C12 7.63181 12.2985 7.33334 12.6667 7.33334H14.6667C15.0349 7.33334 15.3333 7.63181 15.3333 8C15.3333 9.94492 14.5607 11.8102 13.1855 13.1855C11.8102 14.5607 9.94493 15.3333 8 15.3333C6.05508 15.3333 4.18982 14.5607 2.81456 13.1855C1.43929 11.8102 0.666672 9.94492 0.666672 8C0.666672 7.82319 0.73691 7.65362 0.861934 7.5286Z" fill="#4B5466"/>
<path fill-rule="evenodd" clip-rule="evenodd" d="M7.99999 2.00001C7.26362 2.00001 6.66666 2.59696 6.66666 3.33334C6.66666 4.06972 7.26362 4.66667 7.99999 4.66667C8.73637 4.66667 9.33333 4.06972 9.33333 3.33334C9.33333 2.59696 8.73637 2.00001 7.99999 2.00001ZM5.33333 3.33334C5.33333 1.86058 6.52724 0.666672 7.99999 0.666672C9.47275 0.666672 10.6667 1.86058 10.6667 3.33334C10.6667 4.8061 9.47275 6.00001 7.99999 6.00001C6.52724 6.00001 5.33333 4.8061 5.33333 3.33334Z" fill="#4B5466"/>
</g>
<defs>
<clipPath id="clip0_406_2530">
<rect width="16" height="16" fill="white"/>
</clipPath>
</defs>
</svg>
