<svg width="25" height="30" viewBox="0 0 25 30" fill="none" xmlns="http://www.w3.org/2000/svg">
<path d="M8.49998 14.9999L11.1666 17.6666L16.5 12.3333M23.1666 16.3333C23.1666 22.9999 18.5 26.3333 12.9533 28.2666C12.6629 28.365 12.3474 28.3603 12.06 28.2533C6.49998 26.3333 1.83331 22.9999 1.83331 16.3333V6.99995C1.83331 6.64633 1.97379 6.30719 2.22384 6.05714C2.47389 5.80709 2.81302 5.66662 3.16665 5.66662C5.83331 5.66662 9.16665 4.06662 11.4866 2.03995C11.7691 1.79861 12.1285 1.66602 12.5 1.66602C12.8715 1.66602 13.2308 1.79861 13.5133 2.03995C15.8466 4.07995 19.1666 5.66662 21.8333 5.66662C22.1869 5.66662 22.5261 5.80709 22.7761 6.05714C23.0262 6.30719 23.1666 6.64633 23.1666 6.99995V16.3333Z" stroke="white" stroke-width="2.5" stroke-linecap="round" stroke-linejoin="round"/>
</svg>
