<svg width="24" height="24" viewBox="0 0 24 24" fill="none" xmlns="http://www.w3.org/2000/svg">
<path fill-rule="evenodd" clip-rule="evenodd" d="M2 13C2.55228 13 3 13.4477 3 14V15C3 15.5304 3.21071 16.0391 3.58579 16.4142C3.96086 16.7893 4.46957 17 5 17H10C10.5523 17 11 17.4477 11 18C11 18.5523 10.5523 19 10 19H5C3.93913 19 2.92172 18.5786 2.17157 17.8284C1.42143 17.0783 1 16.0609 1 15V14C1 13.4477 1.44772 13 2 13Z" fill="black"/>
<path fill-rule="evenodd" clip-rule="evenodd" d="M6.29289 14.2929C6.68342 13.9024 7.31658 13.9024 7.70711 14.2929L10.7071 17.2929C11.0976 17.6834 11.0976 18.3166 10.7071 18.7071L7.70711 21.7071C7.31658 22.0976 6.68342 22.0976 6.29289 21.7071C5.90237 21.3166 5.90237 20.6834 6.29289 20.2929L8.58579 18L6.29289 15.7071C5.90237 15.3166 5.90237 14.6834 6.29289 14.2929Z" fill="black"/>
<path fill-rule="evenodd" clip-rule="evenodd" d="M16 15C15.4477 15 15 15.4477 15 16V20C15 20.5523 15.4477 21 16 21H20C20.5523 21 21 20.5523 21 20V16C21 15.4477 20.5523 15 20 15H16ZM13 16C13 14.3431 14.3431 13 16 13H20C21.6569 13 23 14.3431 23 16V20C23 21.6569 21.6569 23 20 23H16C14.3431 23 13 21.6569 13 20V16Z" fill="black"/>
<path fill-rule="evenodd" clip-rule="evenodd" d="M4 3C3.44772 3 3 3.44772 3 4V8C3 8.55228 3.44772 9 4 9H8C8.55228 9 9 8.55228 9 8V4C9 3.44772 8.55228 3 8 3H4ZM1 4C1 2.34315 2.34315 1 4 1H8C9.65685 1 11 2.34315 11 4V8C11 9.65685 9.65685 11 8 11H4C2.34315 11 1 9.65685 1 8V4Z" fill="black"/>
</svg>
