<svg width="32" height="32" viewBox="0 0 32 32" fill="none" xmlns="http://www.w3.org/2000/svg">
<path fill-rule="evenodd" clip-rule="evenodd" d="M16.0013 2.66669C16.7377 2.66669 17.3346 3.26364 17.3346 4.00002V22.6667C17.3346 23.4031 16.7377 24 16.0013 24C15.2649 24 14.668 23.4031 14.668 22.6667V4.00002C14.668 3.26364 15.2649 2.66669 16.0013 2.66669Z" fill="#1D428A"/>
<path fill-rule="evenodd" clip-rule="evenodd" d="M7.05849 13.7238C7.57919 13.2031 8.42341 13.2031 8.94411 13.7238L16.0013 20.781L23.0585 13.7238C23.5792 13.2031 24.4234 13.2031 24.9441 13.7238C25.4648 14.2445 25.4648 15.0888 24.9441 15.6095L16.9441 23.6095C16.4234 24.1302 15.5792 24.1302 15.0585 23.6095L7.05849 15.6095C6.53779 15.0888 6.53779 14.2445 7.05849 13.7238Z" fill="#1D428A"/>
<path fill-rule="evenodd" clip-rule="evenodd" d="M5.33203 28C5.33203 27.2636 5.92898 26.6667 6.66536 26.6667H25.332C26.0684 26.6667 26.6654 27.2636 26.6654 28C26.6654 28.7364 26.0684 29.3334 25.332 29.3334H6.66536C5.92898 29.3334 5.33203 28.7364 5.33203 28Z" fill="#1D428A"/>
</svg>
