<svg width="20" height="20" viewBox="0 0 32 32" fill="none" xmlns="http://www.w3.org/2000/svg">
<path fill-rule="evenodd" clip-rule="evenodd" d="M5.17157 2.50489C5.92172 1.75474 6.93913 1.33331 8 1.33331H20C20.3536 1.33331 20.6928 1.47379 20.9428 1.72384L27.6095 8.3905C27.8595 8.64055 28 8.97969 28 9.33331V26.6666C28 27.7275 27.5786 28.7449 26.8284 29.4951C26.0783 30.2452 25.0609 30.6666 24 30.6666H8C6.93913 30.6666 5.92172 30.2452 5.17157 29.4951C4.42143 28.7449 4 27.7275 4 26.6666V5.33331C4 4.27245 4.42143 3.25503 5.17157 2.50489ZM8 3.99998C7.64638 3.99998 7.30724 4.14046 7.05719 4.3905C6.80714 4.64055 6.66667 4.97969 6.66667 5.33331V26.6666C6.66667 27.0203 6.80714 27.3594 7.05719 27.6095C7.30724 27.8595 7.64638 28 8 28H24C24.3536 28 24.6928 27.8595 24.9428 27.6095C25.1929 27.3594 25.3333 27.0203 25.3333 26.6666V9.8856L19.4477 3.99998H8Z" fill="#4791EB"/>
<path fill-rule="evenodd" clip-rule="evenodd" d="M18.6654 1.33331C19.4017 1.33331 19.9987 1.93027 19.9987 2.66665V7.99998C19.9987 8.3536 20.1392 8.69274 20.3892 8.94279C20.6393 9.19284 20.9784 9.33331 21.332 9.33331H26.6654C27.4017 9.33331 27.9987 9.93027 27.9987 10.6666C27.9987 11.403 27.4017 12 26.6654 12H21.332C20.2712 12 19.2537 11.5786 18.5036 10.8284C17.7535 10.0783 17.332 9.06085 17.332 7.99998V2.66665C17.332 1.93027 17.929 1.33331 18.6654 1.33331Z" fill="#4791EB"/>
<path fill-rule="evenodd" clip-rule="evenodd" d="M9.33203 12C9.33203 11.2636 9.92898 10.6667 10.6654 10.6667H13.332C14.0684 10.6667 14.6654 11.2636 14.6654 12C14.6654 12.7364 14.0684 13.3334 13.332 13.3334H10.6654C9.92898 13.3334 9.33203 12.7364 9.33203 12Z" fill="#4791EB"/>
<path fill-rule="evenodd" clip-rule="evenodd" d="M9.33203 17.3333C9.33203 16.597 9.92898 16 10.6654 16H21.332C22.0684 16 22.6654 16.597 22.6654 17.3333C22.6654 18.0697 22.0684 18.6667 21.332 18.6667H10.6654C9.92898 18.6667 9.33203 18.0697 9.33203 17.3333Z" fill="#4791EB"/>
<path fill-rule="evenodd" clip-rule="evenodd" d="M9.33203 22.6666C9.33203 21.9303 9.92898 21.3333 10.6654 21.3333H21.332C22.0684 21.3333 22.6654 21.9303 22.6654 22.6666C22.6654 23.403 22.0684 24 21.332 24H10.6654C9.92898 24 9.33203 23.403 9.33203 22.6666Z" fill="#4791EB"/>
</svg>
