<svg width="24" height="24" viewBox="0 0 24 24" fill="none" xmlns="http://www.w3.org/2000/svg">
<path fill-rule="evenodd" clip-rule="evenodd" d="M6.11896 3.91002C8.04524 2.50647 10.4095 1.83706 12.7856 2.02243C15.1618 2.20781 17.3936 3.23577 19.0789 4.92107C20.7642 6.60638 21.7922 8.83821 21.9776 11.2144C22.163 13.5905 21.4935 15.9548 20.09 17.8811C18.6864 19.8073 16.641 21.169 14.3224 21.7206C12.1442 22.2388 9.85945 22.0102 7.83253 21.0788L2.32107 22.9471C1.96061 23.0692 1.56205 22.9762 1.29292 22.7071C1.02379 22.438 0.930774 22.0394 1.05296 21.6789L2.92125 16.1675C1.98982 14.1406 1.7612 11.8558 2.2794 9.67765C2.83103 7.35898 4.19268 5.31358 6.11896 3.91002ZM12.6301 4.01637C10.7292 3.86808 8.83776 4.4036 7.29674 5.52645C5.75571 6.64929 4.6664 8.28561 4.2251 10.1405C3.78379 11.9955 4.01951 13.947 4.88979 15.6436C5.01328 15.8843 5.03395 16.1648 4.94709 16.421L3.5974 20.4026L7.57899 19.0529C7.83522 18.9661 8.11572 18.9867 8.35645 19.1102C10.053 19.9805 12.0045 20.2162 13.8595 19.7749C15.7144 19.3336 17.3507 18.2443 18.4736 16.7033C19.5964 15.1623 20.1319 13.2709 19.9836 11.3699C19.8353 9.46899 19.013 7.68353 17.6647 6.33529C16.3165 4.98704 14.531 4.16467 12.6301 4.01637Z" fill="#090b14"/>
</svg>
