<svg width="40" height="57" viewBox="0 0 40 57" fill="none" xmlns="http://www.w3.org/2000/svg">
  <path d="M0 16.144C0 8.60157 0 4.83033 2.34315 2.48719C4.68629 0.144043 8.45753 0.144043 16 0.144043H40V40.144C40 47.6865 40 51.4578 37.6569 53.8009C35.3137 56.144 31.5425 56.144 24 56.144H0V16.144Z" fill="#3D50FD"/>
  <path fill-rule="evenodd" clip-rule="evenodd" d="M15 20.144C14.7348 20.144 14.4804 20.2494 14.2929 20.4369C14.1054 20.6245 14 20.8788 14 21.144V35.4209L19.5039 32.2758C19.8113 32.1001 20.1887 32.1001 20.4961 32.2758L26 35.4209V21.144C26 20.8788 25.8946 20.6245 25.7071 20.4369C25.5196 20.2494 25.2652 20.144 25 20.144H15ZM12.8787 19.0227C13.4413 18.4601 14.2044 18.144 15 18.144H25C25.7956 18.144 26.5587 18.4601 27.1213 19.0227C27.6839 19.5853 28 20.3484 28 21.144V37.144C28 37.5005 27.8102 37.83 27.5019 38.009C27.1936 38.1879 26.8134 38.1891 26.5039 38.0123L20 34.2958L13.4961 38.0123C13.1866 38.1891 12.8064 38.1879 12.4981 38.009C12.1898 37.83 12 37.5005 12 37.144V21.144C12 20.3484 12.3161 19.5853 12.8787 19.0227Z" fill="white"/>
</svg>
