<svg width="16" height="16" viewBox="0 0 16 16" fill="none" xmlns="http://www.w3.org/2000/svg">
<path fill-rule="evenodd" clip-rule="evenodd" d="M8.00004 0.666656C8.36823 0.666656 8.66671 0.965133 8.66671 1.33332V7.99999C8.66671 8.36818 8.36823 8.66666 8.00004 8.66666C7.63185 8.66666 7.33337 8.36818 7.33337 7.99999V1.33332C7.33337 0.965133 7.63185 0.666656 8.00004 0.666656Z" fill="#1975E5"/>
<path fill-rule="evenodd" clip-rule="evenodd" d="M11.7953 3.92851C12.0557 3.66821 12.4778 3.66829 12.7381 3.92869C13.669 4.85988 14.3033 6.04585 14.561 7.33704C14.8187 8.62824 14.6883 9.96683 14.1862 11.184C13.6841 12.4012 12.8329 13.4424 11.7398 14.1764C10.6467 14.9105 9.36077 15.3044 8.04412 15.3085C6.72747 15.3126 5.43908 14.9268 4.34142 14.1996C3.24377 13.4725 2.38602 12.4366 1.87633 11.2226C1.36665 10.0086 1.22786 8.67081 1.47746 7.37803C1.72707 6.08524 2.3539 4.89532 3.27889 3.95832C3.53756 3.69629 3.95966 3.69357 4.22168 3.95224C4.4837 4.2109 4.48643 4.633 4.22776 4.89503C3.48776 5.64463 2.9863 6.59657 2.78662 7.63079C2.58693 8.66502 2.69797 9.73522 3.10571 10.7064C3.51346 11.6776 4.19967 12.5063 5.07779 13.0881C5.95591 13.6698 6.98662 13.9785 8.03994 13.9752C9.09327 13.9719 10.122 13.6567 10.9965 13.0695C11.8709 12.4823 12.5519 11.6493 12.9536 10.6756C13.3553 9.70183 13.4596 8.63096 13.2534 7.59801C13.0473 6.56505 12.5398 5.61627 11.7952 4.87132C11.5349 4.61092 11.5349 4.18881 11.7953 3.92851Z" fill="#1975E5"/>
</svg>
