<svg width="24" height="24" viewBox="0 0 24 24" fill="none" xmlns="http://www.w3.org/2000/svg">
<path fill-rule="evenodd" clip-rule="evenodd" d="M4 10C3.73478 10 3.48043 10.1054 3.29289 10.2929C3.10536 10.4804 3 10.7348 3 11V16C3 16.2652 3.10536 16.5196 3.29289 16.7071C3.48043 16.8946 3.73478 17 4 17H6C6.55228 17 7 17.4477 7 18C7 18.5523 6.55228 19 6 19H4C3.20435 19 2.44129 18.6839 1.87868 18.1213C1.31607 17.5587 1 16.7956 1 16V11C1 10.2044 1.31607 9.44129 1.87868 8.87868C2.44129 8.31607 3.20435 8 4 8H20C20.7957 8 21.5587 8.31607 22.1213 8.87868C22.6839 9.44129 23 10.2043 23 11V16C23 16.7957 22.6839 17.5587 22.1213 18.1213C21.5587 18.6839 20.7957 19 20 19H18C17.4477 19 17 18.5523 17 18C17 17.4477 17.4477 17 18 17H20C20.2652 17 20.5196 16.8946 20.7071 16.7071C20.8946 16.5196 21 16.2652 21 16V11C21 10.7348 20.8946 10.4804 20.7071 10.2929C20.5196 10.1054 20.2652 10 20 10H4Z" fill="black"/>
<path fill-rule="evenodd" clip-rule="evenodd" d="M5.58579 1.58579C5.96086 1.21071 6.46957 1 7 1H17C17.5304 1 18.0391 1.21071 18.4142 1.58579C18.7893 1.96086 19 2.46957 19 3V9C19 9.55228 18.5523 10 18 10C17.4477 10 17 9.55228 17 9V3H7L7 9C7 9.55228 6.55228 10 6 10C5.44772 10 5 9.55228 5 9V3C5 2.46957 5.21071 1.96086 5.58579 1.58579Z" fill="black"/>
<path fill-rule="evenodd" clip-rule="evenodd" d="M5 15C5 13.8954 5.89543 13 7 13H17C18.1046 13 19 13.8954 19 15V21C19 22.1046 18.1046 23 17 23H7C5.89543 23 5 22.1046 5 21V15ZM17 15H7V21H17V15Z" fill="black"/>
</svg>
