<svg width="16" height="16" viewBox="0 0 16 16" fill="none" xmlns="http://www.w3.org/2000/svg">
<path fill-rule="evenodd" clip-rule="evenodd" d="M2.7635 1.43087L14.7606 7.09618C14.9319 7.17717 15.077 7.3053 15.1783 7.46534C15.2797 7.62538 15.3335 7.81091 15.3335 8.00035C15.3335 8.18979 15.2797 8.37532 15.1783 8.53536C15.077 8.6954 14.9322 8.82336 14.761 8.90435L2.76291 14.5701C2.5836 14.6561 2.38267 14.6866 2.18586 14.6576C1.98762 14.6285 1.80275 14.5404 1.65526 14.4048C1.50776 14.2692 1.40446 14.0924 1.35878 13.8973C1.31345 13.7037 1.32696 13.501 1.39751 13.3151L3.29123 8.23302C3.29124 8.23298 3.29121 8.23306 3.29123 8.23302C3.34705 8.08303 3.3471 7.91786 3.2913 7.76787C3.29127 7.76781 3.29132 7.76793 3.2913 7.76787L1.39698 2.68592C1.32621 2.49998 1.31258 2.2971 1.3579 2.1033C1.4036 1.90787 1.50712 1.73075 1.65497 1.59502C1.80282 1.45929 1.98814 1.37126 2.18675 1.34241C2.38356 1.31381 2.58439 1.34464 2.7635 1.43087ZM2.93127 2.98461L4.54066 7.30216C4.70833 7.75239 4.7084 8.24812 4.54072 8.69835L2.93195 13.0158L13.5528 8.00035L2.93127 2.98461Z" fill="#313EB8"/>
<path fill-rule="evenodd" clip-rule="evenodd" d="M3.33337 7.99967C3.33337 7.63148 3.63185 7.33301 4.00004 7.33301H14.6667C15.0349 7.33301 15.3334 7.63148 15.3334 7.99967C15.3334 8.36786 15.0349 8.66634 14.6667 8.66634H4.00004C3.63185 8.66634 3.33337 8.36786 3.33337 7.99967Z" fill="#313EB8"/>
</svg>
