<svg width="41" height="42" viewBox="0 0 41 42" fill="none" xmlns="http://www.w3.org/2000/svg">
<rect y="0.78186" width="41" height="41" rx="2" fill="#1D428A"/>
<path d="M10.5 30.2819C11.1 30.7819 11.7 31.2819 13 31.2819C15.5 31.2819 15.5 29.2819 18 29.2819C19.3 29.2819 19.9 29.7819 20.5 30.2819C21.1 30.7819 21.7 31.2819 23 31.2819C25.5 31.2819 25.5 29.2819 28 29.2819C29.3 29.2819 29.9 29.7819 30.5 30.2819" stroke="white" stroke-width="2" stroke-linecap="round" stroke-linejoin="round"/>
<path d="M27.88 29.2819C28.9557 27.4664 29.5158 25.392 29.5 23.2819L20.5 19.2819L11.5 23.2819C11.5 26.1819 12.44 28.6219 14.31 31.0419" stroke="white" stroke-width="2" stroke-linecap="round" stroke-linejoin="round"/>
<path d="M27.5 22.2819V16.2819C27.5 15.7514 27.2893 15.2427 26.9142 14.8676C26.5391 14.4926 26.0304 14.2819 25.5 14.2819H15.5C14.9696 14.2819 14.4609 14.4926 14.0858 14.8676C13.7107 15.2427 13.5 15.7514 13.5 16.2819V22.2819" stroke="white" stroke-width="2" stroke-linecap="round" stroke-linejoin="round"/>
<path d="M20.5 19.2819V23.2819" stroke="white" stroke-width="2" stroke-linecap="round" stroke-linejoin="round"/>
<path d="M20.5 11.2819V14.2819" stroke="white" stroke-width="2" stroke-linecap="round" stroke-linejoin="round"/>
</svg>
