<svg width="161" height="50" viewBox="0 0 161 50" fill="none" xmlns="http://www.w3.org/2000/svg">
  <g clip-path="url(#clip0_3059_2004)">
    <path d="M19.9177 3.96436L18.5202 7.69822C26.2017 8.46003 31.611 14.1836 31.611 21.8669C31.611 30.1315 25.3019 36.1257 16.6098 36.1257H7.89772L6.44989 39.9999H16.6149C27.5591 39.9999 35.497 32.3718 35.497 21.8669C35.497 12.4144 29.1125 5.29251 19.9177 3.96436Z" fill="#0039FF"/>
    <path d="M3.88602 32.3919V3.87419H18.1482C18.7514 3.87419 19.3396 3.90427 19.9177 3.96441L21.3153 0.230541C20.2948 0.0801834 19.2391 0.00500488 18.1482 0.00500488H0V36.2711H7.84242L9.29025 32.3969H3.88602V32.3919Z" fill="#0039FF"/>
    <path d="M23.482 19.2106L17.7158 9.8634L15.9965 14.4643L20.0886 21.0901C20.4305 21.7416 20.6065 22.4483 20.6065 23.1901C20.6065 25.696 18.5604 27.7359 16.0468 27.7359C14.2672 27.7359 12.7238 26.7134 11.9748 25.2249L10.3962 29.4449C11.8943 30.7931 13.875 31.6101 16.0468 31.6101C20.702 31.6101 24.4874 27.8361 24.4874 23.1951C24.4874 21.8118 24.1406 20.4335 23.487 19.2156L23.482 19.2106Z" fill="#0039FF"/>
    <path d="M15.8708 20.634C14.5738 20.634 13.5231 21.6815 13.5231 22.9746C13.5231 24.2677 14.5738 25.3152 15.8708 25.3152C17.1679 25.3152 18.2185 24.2677 18.2185 22.9746H15.8708V20.634Z" fill="#0039FF"/>
    <path d="M54.5852 9.21692H47.15V30.8282H54.5852C61.4775 30.8282 65.7557 26.6884 65.7557 20.0226C65.7557 13.3568 61.4725 9.21692 54.5852 9.21692ZM62.0305 20.0226C62.0305 25.0044 59.2253 27.7459 54.1328 27.7459H50.7897V12.3293H54.1328C59.2253 12.3293 62.0305 15.0608 62.0305 20.0226Z" fill="#090B14"/>
    <path d="M75.3475 16.5143C73.7388 16.5143 72.477 17.1308 71.7632 18.2334V16.7549H68.4V30.8283H71.8235V23.8367C71.8235 21.1453 72.8088 19.8372 74.8348 19.8372H76.6244V16.6346L76.4485 16.6045C76.0765 16.5444 75.6994 16.5093 75.3526 16.5093L75.3475 16.5143Z" fill="#090B14"/>
    <path d="M85.4522 16.3939C81.1791 16.3939 77.9516 19.5665 77.9516 23.7765C77.9516 27.9865 81.1741 31.1891 85.4522 31.1891C89.7303 31.1891 92.9779 28.0015 92.9779 23.7765C92.9779 19.5514 89.7404 16.3939 85.4522 16.3939ZM89.4639 23.7765C89.4639 26.3025 87.7748 28.1418 85.4522 28.1418C83.1296 28.1418 81.4405 26.3075 81.4405 23.7765C81.4405 21.2454 83.1296 19.4462 85.4522 19.4462C87.7748 19.4462 89.4639 21.2705 89.4639 23.7765Z" fill="#090B14"/>
    <path d="M103.555 16.3939C101.786 16.3939 100.066 17.1557 99.1161 18.3085V16.7548H95.6926V36.0957H99.1161V29.3196C100.061 30.4573 101.73 31.1891 103.49 31.1891C107.622 31.1891 110.623 28.0717 110.623 23.7765C110.623 19.4813 107.647 16.3939 103.55 16.3939H103.555ZM107.109 23.7765C107.109 26.3225 105.41 28.1719 103.067 28.1719C100.725 28.1719 99.0256 26.3225 99.0256 23.7765C99.0256 21.2304 100.725 19.4161 103.067 19.4161C105.41 19.4161 107.109 21.2505 107.109 23.7765Z" fill="#090B14"/>
    <path d="M138.695 19.4462C140.143 19.4462 141.319 20.1178 142.003 21.3356L142.104 21.5111L145.085 19.9925L144.984 19.807C143.868 17.7371 141.4 16.3989 138.695 16.3989C134.437 16.3989 131.23 19.5865 131.23 23.8115C131.23 28.0366 134.442 31.1941 138.695 31.1941C141.4 31.1941 143.868 29.8559 144.984 27.786L145.085 27.6005L142.104 26.0819L142.003 26.2573C141.314 27.4752 140.143 28.1468 138.695 28.1468C136.353 28.1468 134.714 26.3676 134.714 23.8165C134.714 21.2655 136.388 19.4512 138.695 19.4512V19.4462Z" fill="#090B14"/>
    <path d="M153.108 16.3939C150.951 16.3939 148.845 17.1056 147.473 18.2934L147.337 18.4137L148.986 20.9999L149.167 20.8545C149.976 20.213 151.283 19.4462 152.892 19.4462C153.882 19.4462 155.536 19.7068 155.536 21.4459V21.6564C155.536 22.0373 155.406 22.2929 154.772 22.2929H151.826C148.594 22.2929 146.668 23.9318 146.668 26.6784C146.668 29.4249 148.694 31.1841 151.826 31.1841C153.053 31.1841 154.586 30.8082 155.536 29.8008V30.8182H158.99V21.4961C158.99 18.3436 156.733 16.3839 153.103 16.3839L153.108 16.3939ZM155.541 24.7889V25.6208C155.541 27.6757 153.953 28.4075 152.47 28.4075C150.831 28.4075 150.248 27.4251 150.248 26.5881C150.248 25.2349 151.454 24.9493 152.47 24.9493H154.29C154.827 24.9493 155.235 24.8941 155.536 24.7839L155.541 24.7889Z" fill="#090B14"/>
    <path d="M127.676 11.2567H127.329H126.866H126.374L126.318 11.4522H126.278V11.5925L125.403 14.6648H126.866H127.329H127.676H128.173H128.636L129.606 11.2567H129.144H127.676Z" fill="#090B14"/>
    <path d="M118.134 11.2467H114.68V16.7548H112.483L111.659 19.6567H114.68V27.776C114.68 30.9836 117.601 30.9836 118.566 30.9836C119.335 30.9836 120.281 30.9134 120.803 30.8683L120.864 30.6528L120.924 30.4373L121.06 29.9611L121.482 28.4826L121.663 27.8461L121.512 27.8662C121.512 27.8662 120.361 28.0215 119.325 28.0215C118.491 28.0215 118.139 27.7509 118.139 27.1094V19.6567H125.036V30.8282H128.46V16.7548H118.134V11.2467Z" fill="#090B14"/>
  </g>
  <path d="M76.996 49.0001V40.6001H78.388V49.0001H76.996Z" fill="black"/>
  <path d="M80.1307 49.0001V43.0001H81.3907L81.4747 44.1041V49.0001H80.1307ZM84.1987 49.0001V45.9281H85.5427V49.0001H84.1987ZM84.1987 45.9281C84.1987 45.4481 84.1427 45.0801 84.0307 44.8241C83.9267 44.5601 83.7747 44.3761 83.5747 44.2721C83.3827 44.1681 83.1547 44.1161 82.8907 44.1161C82.4427 44.1081 82.0947 44.2561 81.8467 44.5601C81.5987 44.8641 81.4747 45.3001 81.4747 45.8681H80.9707C80.9707 45.2361 81.0627 44.6961 81.2467 44.2481C81.4307 43.7921 81.6947 43.4481 82.0387 43.2161C82.3827 42.9761 82.7907 42.8561 83.2627 42.8561C83.7427 42.8561 84.1507 42.9521 84.4867 43.1441C84.8307 43.3361 85.0907 43.6361 85.2667 44.0441C85.4507 44.4441 85.5427 44.9681 85.5427 45.6161V45.9281H84.1987Z" fill="black"/>
  <path d="M89.2922 49.1441C88.6602 49.1441 88.1762 48.9881 87.8402 48.6761C87.5122 48.3561 87.3482 47.9001 87.3482 47.3081V41.1281H88.6802V47.0561C88.6802 47.3361 88.7442 47.5481 88.8722 47.6921C89.0082 47.8361 89.2042 47.9081 89.4602 47.9081C89.5402 47.9081 89.6282 47.8921 89.7242 47.8601C89.8202 47.8281 89.9282 47.7681 90.0482 47.6801L90.5402 48.7001C90.3322 48.8441 90.1242 48.9521 89.9162 49.0241C89.7082 49.1041 89.5002 49.1441 89.2922 49.1441ZM86.3522 44.1521V43.0001H90.3002V44.1521H86.3522Z" fill="black"/>
  <path d="M92.5031 45.8081C92.5031 45.1601 92.6271 44.6281 92.8751 44.2121C93.1231 43.7961 93.4431 43.4881 93.8351 43.2881C94.2351 43.0801 94.6511 42.9761 95.0831 42.9761V44.2601C94.7151 44.2601 94.3671 44.3121 94.0391 44.4161C93.7191 44.5121 93.4591 44.6721 93.2591 44.8961C93.0591 45.1201 92.9591 45.4161 92.9591 45.7841L92.5031 45.8081ZM91.6151 49.0001V43.0001H92.9591V49.0001H91.6151Z" fill="black"/>
  <path d="M99.6345 49.0001L99.5745 47.8721V45.9161C99.5745 45.5081 99.5305 45.1681 99.4425 44.8961C99.3625 44.6161 99.2265 44.4041 99.0345 44.2601C98.8505 44.1081 98.6025 44.0321 98.2905 44.0321C98.0025 44.0321 97.7505 44.0921 97.5345 44.2121C97.3185 44.3321 97.1345 44.5201 96.9825 44.7761L95.8065 44.3441C95.9345 44.0801 96.1025 43.8361 96.3105 43.6121C96.5265 43.3801 96.7945 43.1961 97.1145 43.0601C97.4425 42.9241 97.8345 42.8561 98.2905 42.8561C98.8745 42.8561 99.3625 42.9721 99.7545 43.2041C100.146 43.4281 100.434 43.7521 100.618 44.1761C100.81 44.6001 100.906 45.1121 100.906 45.7121L100.87 49.0001H99.6345ZM97.9065 49.1441C97.1865 49.1441 96.6265 48.9841 96.2265 48.6641C95.8345 48.3441 95.6385 47.8921 95.6385 47.3081C95.6385 46.6841 95.8465 46.2081 96.2625 45.8801C96.6865 45.5521 97.2745 45.3881 98.0265 45.3881H99.6345V46.4201H98.4585C97.9225 46.4201 97.5465 46.4961 97.3305 46.6481C97.1145 46.7921 97.0065 47.0001 97.0065 47.2721C97.0065 47.5041 97.0985 47.6881 97.2825 47.8241C97.4745 47.9521 97.7385 48.0161 98.0745 48.0161C98.3785 48.0161 98.6425 47.9481 98.8665 47.8121C99.0905 47.6761 99.2625 47.4961 99.3825 47.2721C99.5105 47.0481 99.5745 46.7961 99.5745 46.5161H99.9705C99.9705 47.3321 99.8065 47.9761 99.4785 48.4481C99.1505 48.9121 98.6265 49.1441 97.9065 49.1441Z" fill="black"/>
  <path d="M102.267 49.0001V43.0001H103.527L103.611 44.1041V49.0001H102.267ZM106.335 49.0001V45.9281H107.679V49.0001H106.335ZM106.335 45.9281C106.335 45.4481 106.279 45.0801 106.167 44.8241C106.063 44.5601 105.911 44.3761 105.711 44.2721C105.519 44.1681 105.291 44.1161 105.027 44.1161C104.579 44.1081 104.231 44.2561 103.983 44.5601C103.735 44.8641 103.611 45.3001 103.611 45.8681H103.107C103.107 45.2361 103.199 44.6961 103.383 44.2481C103.567 43.7921 103.831 43.4481 104.175 43.2161C104.519 42.9761 104.927 42.8561 105.399 42.8561C105.879 42.8561 106.287 42.9521 106.623 43.1441C106.967 43.3361 107.227 43.6361 107.403 44.0441C107.587 44.4441 107.679 44.9681 107.679 45.6161V45.9281H106.335Z" fill="black"/>
  <path d="M111.717 49.1441C111.133 49.1441 110.613 49.0121 110.157 48.7481C109.709 48.4761 109.353 48.1041 109.089 47.6321C108.833 47.1601 108.705 46.6161 108.705 46.0001C108.705 45.3841 108.837 44.8401 109.101 44.3681C109.365 43.8961 109.725 43.5281 110.181 43.2641C110.645 42.9921 111.173 42.8561 111.765 42.8561C112.301 42.8561 112.785 42.9961 113.217 43.2761C113.649 43.5481 113.989 43.9441 114.237 44.4641C114.493 44.9841 114.621 45.6041 114.621 46.3241H109.905L110.085 46.1561C110.085 46.5241 110.165 46.8441 110.325 47.1161C110.485 47.3801 110.697 47.5841 110.961 47.7281C111.225 47.8721 111.517 47.9441 111.837 47.9441C112.205 47.9441 112.509 47.8641 112.749 47.7041C112.989 47.5361 113.177 47.3201 113.313 47.0561L114.501 47.5601C114.333 47.8801 114.117 48.1601 113.853 48.4001C113.597 48.6401 113.289 48.8241 112.929 48.9521C112.577 49.0801 112.173 49.1441 111.717 49.1441ZM110.169 45.4601L109.977 45.2921H113.361L113.181 45.4601C113.181 45.1321 113.109 44.8641 112.965 44.6561C112.821 44.4401 112.637 44.2801 112.413 44.1761C112.197 44.0641 111.969 44.0081 111.729 44.0081C111.489 44.0081 111.249 44.0641 111.009 44.1761C110.769 44.2801 110.569 44.4401 110.409 44.6561C110.249 44.8641 110.169 45.1321 110.169 45.4601Z" fill="black"/>
  <path d="M118.038 49.1441C117.406 49.1441 116.922 48.9881 116.586 48.6761C116.258 48.3561 116.094 47.9001 116.094 47.3081V41.1281H117.426V47.0561C117.426 47.3361 117.49 47.5481 117.618 47.6921C117.754 47.8361 117.95 47.9081 118.206 47.9081C118.286 47.9081 118.374 47.8921 118.47 47.8601C118.566 47.8281 118.674 47.7681 118.794 47.6801L119.286 48.7001C119.078 48.8441 118.87 48.9521 118.662 49.0241C118.454 49.1041 118.246 49.1441 118.038 49.1441ZM115.098 44.1521V43.0001H119.046V44.1521H115.098Z" fill="black"/>
  <path d="M126.268 49.1441C125.828 49.1441 125.424 49.0921 125.056 48.9881C124.696 48.8841 124.376 48.7401 124.096 48.5561C123.824 48.3721 123.596 48.1681 123.412 47.9441C123.236 47.7121 123.112 47.4721 123.04 47.2241L124.408 46.8041C124.512 47.1001 124.716 47.3601 125.02 47.5841C125.324 47.8081 125.7 47.9241 126.148 47.9321C126.668 47.9321 127.08 47.8241 127.384 47.6081C127.688 47.3921 127.84 47.1081 127.84 46.7561C127.84 46.4361 127.712 46.1761 127.456 45.9761C127.2 45.7681 126.856 45.6081 126.424 45.4961L125.392 45.2321C125 45.1281 124.644 44.9761 124.324 44.7761C124.012 44.5761 123.764 44.3241 123.58 44.0201C123.404 43.7161 123.316 43.3561 123.316 42.9401C123.316 42.1561 123.572 41.5481 124.084 41.1161C124.596 40.6761 125.328 40.4561 126.28 40.4561C126.816 40.4561 127.284 40.5401 127.684 40.7081C128.092 40.8681 128.428 41.0921 128.692 41.3801C128.956 41.6601 129.152 41.9801 129.28 42.3401L127.936 42.7721C127.816 42.4521 127.608 42.1881 127.312 41.9801C127.016 41.7721 126.648 41.6681 126.208 41.6681C125.752 41.6681 125.392 41.7761 125.128 41.9921C124.872 42.2081 124.744 42.5081 124.744 42.8921C124.744 43.2041 124.844 43.4481 125.044 43.6241C125.252 43.7921 125.532 43.9201 125.884 44.0081L126.916 44.2601C127.668 44.4441 128.252 44.7601 128.668 45.2081C129.084 45.6561 129.292 46.1521 129.292 46.6961C129.292 47.1761 129.176 47.6001 128.944 47.9681C128.712 48.3361 128.368 48.6241 127.912 48.8321C127.464 49.0401 126.916 49.1441 126.268 49.1441Z" fill="black"/>
  <path d="M132.968 49.1441C132.336 49.1441 131.852 48.9881 131.516 48.6761C131.188 48.3561 131.024 47.9001 131.024 47.3081V41.1281H132.356V47.0561C132.356 47.3361 132.42 47.5481 132.548 47.6921C132.684 47.8361 132.88 47.9081 133.136 47.9081C133.216 47.9081 133.304 47.8921 133.4 47.8601C133.496 47.8281 133.604 47.7681 133.724 47.6801L134.216 48.7001C134.008 48.8441 133.8 48.9521 133.592 49.0241C133.384 49.1041 133.176 49.1441 132.968 49.1441ZM130.028 44.1521V43.0001H133.976V44.1521H130.028Z" fill="black"/>
  <path d="M138.869 49.0001L138.809 47.8721V45.9161C138.809 45.5081 138.765 45.1681 138.677 44.8961C138.597 44.6161 138.461 44.4041 138.269 44.2601C138.085 44.1081 137.837 44.0321 137.525 44.0321C137.237 44.0321 136.985 44.0921 136.769 44.2121C136.553 44.3321 136.369 44.5201 136.217 44.7761L135.041 44.3441C135.169 44.0801 135.337 43.8361 135.545 43.6121C135.761 43.3801 136.029 43.1961 136.349 43.0601C136.677 42.9241 137.069 42.8561 137.525 42.8561C138.109 42.8561 138.597 42.9721 138.989 43.2041C139.381 43.4281 139.669 43.7521 139.853 44.1761C140.045 44.6001 140.141 45.1121 140.141 45.7121L140.105 49.0001H138.869ZM137.141 49.1441C136.421 49.1441 135.861 48.9841 135.461 48.6641C135.069 48.3441 134.873 47.8921 134.873 47.3081C134.873 46.6841 135.081 46.2081 135.497 45.8801C135.921 45.5521 136.509 45.3881 137.261 45.3881H138.869V46.4201H137.693C137.157 46.4201 136.781 46.4961 136.565 46.6481C136.349 46.7921 136.241 47.0001 136.241 47.2721C136.241 47.5041 136.333 47.6881 136.517 47.8241C136.709 47.9521 136.973 48.0161 137.309 48.0161C137.613 48.0161 137.877 47.9481 138.101 47.8121C138.325 47.6761 138.497 47.4961 138.617 47.2721C138.745 47.0481 138.809 46.7961 138.809 46.5161H139.205C139.205 47.3321 139.041 47.9761 138.713 48.4481C138.385 48.9121 137.861 49.1441 137.141 49.1441Z" fill="black"/>
  <path d="M142.39 45.8081C142.39 45.1601 142.514 44.6281 142.762 44.2121C143.01 43.7961 143.33 43.4881 143.722 43.2881C144.122 43.0801 144.538 42.9761 144.97 42.9761V44.2601C144.602 44.2601 144.254 44.3121 143.926 44.4161C143.606 44.5121 143.346 44.6721 143.146 44.8961C142.946 45.1201 142.846 45.4161 142.846 45.7841L142.39 45.8081ZM141.502 49.0001V43.0001H142.846V49.0001H141.502Z" fill="black"/>
  <path d="M148.249 49.1441C147.617 49.1441 147.133 48.9881 146.797 48.6761C146.469 48.3561 146.305 47.9001 146.305 47.3081V41.1281H147.637V47.0561C147.637 47.3361 147.701 47.5481 147.829 47.6921C147.965 47.8361 148.161 47.9081 148.417 47.9081C148.497 47.9081 148.585 47.8921 148.681 47.8601C148.777 47.8281 148.885 47.7681 149.005 47.6801L149.497 48.7001C149.289 48.8441 149.081 48.9521 148.873 49.0241C148.665 49.1041 148.457 49.1441 148.249 49.1441ZM145.309 44.1521V43.0001H149.257V44.1521H145.309Z" fill="black"/>
  <path d="M153.166 49.1441C152.582 49.1441 152.062 49.0121 151.606 48.7481C151.158 48.4761 150.802 48.1041 150.538 47.6321C150.282 47.1601 150.154 46.6161 150.154 46.0001C150.154 45.3841 150.286 44.8401 150.55 44.3681C150.814 43.8961 151.174 43.5281 151.63 43.2641C152.094 42.9921 152.622 42.8561 153.214 42.8561C153.75 42.8561 154.234 42.9961 154.666 43.2761C155.098 43.5481 155.438 43.9441 155.686 44.4641C155.942 44.9841 156.07 45.6041 156.07 46.3241H151.354L151.534 46.1561C151.534 46.5241 151.614 46.8441 151.774 47.1161C151.934 47.3801 152.146 47.5841 152.41 47.7281C152.674 47.8721 152.966 47.9441 153.286 47.9441C153.654 47.9441 153.958 47.8641 154.198 47.7041C154.438 47.5361 154.626 47.3201 154.762 47.0561L155.95 47.5601C155.782 47.8801 155.566 48.1601 155.302 48.4001C155.046 48.6401 154.738 48.8241 154.378 48.9521C154.026 49.0801 153.622 49.1441 153.166 49.1441ZM151.618 45.4601L151.426 45.2921H154.81L154.63 45.4601C154.63 45.1321 154.558 44.8641 154.414 44.6561C154.27 44.4401 154.086 44.2801 153.862 44.1761C153.646 44.0641 153.418 44.0081 153.178 44.0081C152.938 44.0081 152.698 44.0641 152.458 44.1761C152.218 44.2801 152.018 44.4401 151.858 44.6561C151.698 44.8641 151.618 45.1321 151.618 45.4601Z" fill="black"/>
  <path d="M157.987 45.8081C157.987 45.1601 158.111 44.6281 158.359 44.2121C158.607 43.7961 158.927 43.4881 159.319 43.2881C159.719 43.0801 160.135 42.9761 160.567 42.9761V44.2601C160.199 44.2601 159.851 44.3121 159.523 44.4161C159.203 44.5121 158.943 44.6721 158.743 44.8961C158.543 45.1201 158.443 45.4161 158.443 45.7841L157.987 45.8081ZM157.099 49.0001V43.0001H158.443V49.0001H157.099Z" fill="black"/>
  <defs>
    <clipPath id="clip0_3059_2004">
      <rect width="159" height="40" fill="white"/>
    </clipPath>
  </defs>
</svg>
